# xmcd
#
# Track frame offsets: 
#        150
#        13851
#        27736
#        37074
#        49152
#        60922
#        75503
#        85557
#        98130
#        110410
#        120198
#        133594
#        144367
#        155875
#        167942
#        176748
#        188919
#        196397
#        207771
#        217124
#        230223
#        242569
#        254348
#
# Disc length: 3530 seconds
#
# Revision: 0
# Processed by: cddbd v1.5.2PL0 Copyright (c) Steve Scherf et al.
# Submitted via: ExactAudioCopy v1.0b1
#
DISCID=460dc817
DTITLE=Albert Collins - The Cool Sound Of Albert Collins
DYEAR=1900
DGENRE=Blues
TTITLE0=Frosty
TTITLE1=Hot 'N' Cold
TTITLE2=Frost Bite
TTITLE3=Tremble
TTITLE4=Thaw Out
TTITLE5=Dyin' Flu
TTITLE6=Don't Lose Your Cool
TTITLE7=Backstroke
TTITLE8=Cool Aide
TTITLE9=Shiver And Shake
TTITLE10=Icy Blue
TTITLE11=Snow Cone - Part 1
TTITLE12=Snow Cone - Part 2
TTITLE13=Defrost
TTITLE14=I Don't Know
TTITLE15=Cookin' Catfish
TTITLE16=Takin' My Time
TTITLE17=Freeze
TTITLE18=Soul Road
TTITLE19=Homesick
TTITLE20=Sippin' Soda
TTITLE21=Albert's Alley
TTITLE22=Collins' Shuffle
EXTD=
EXTT0=
EXTT1=
EXTT2=
EXTT3=
EXTT4=
EXTT5=
EXTT6=
EXTT7=
EXTT8=
EXTT9=
EXTT10=
EXTT11=
EXTT12=
EXTT13=
EXTT14=
EXTT15=
EXTT16=
EXTT17=
EXTT18=
EXTT19=
EXTT20=
EXTT21=
EXTT22=
PLAYORDER=
